<svg width="14" height="16" viewBox="0 0 14 16" fill="none" xmlns="http://www.w3.org/2000/svg">
  <style>
    path {
      fill: #131B23;
    }
    @media (prefers-color-scheme: dark) {
      path {
        fill: #E9F1F7;
      }
    }
  </style>
  <path d="M13.3 14.6667H11.9V12.094C11.9 10.9789 11.3152 9.93797 10.3412 9.32041L8.26184 8L10.3416 6.67934C11.3152 6.06203 11.9 5.02112 11.9 3.906V1.33334H13.3C13.6866 1.33334 14 1.03487 14 0.666687C14 0.298469 13.6866 0 13.3 0H11.2H2.79999H0.69999C0.313393 0 0 0.298469 0 0.666656C0 1.03484 0.313393 1.33331 0.69999 1.33331H2.1V3.90597C2.1 5.02109 2.68479 6.062 3.65876 6.67956L5.73816 8L3.65837 9.32066C2.68479 9.93797 2.1 10.9789 2.1 12.094V14.6667H0.69999C0.313393 14.6667 0 14.9651 0 15.3333C0 15.7015 0.313393 16 0.69999 16H2.79999H11.2H13.3C13.6866 16 14 15.7015 14 15.3333C14 14.9652 13.6866 14.6667 13.3 14.6667ZM3.49998 3.906V1.33334H10.5V3.906C10.5 4.57525 10.1493 5.1995 9.56535 5.56975L7 7.19875L4.43501 5.57C3.85072 5.1995 3.49998 4.57525 3.49998 3.906ZM3.49998 14.6667V12.094C3.49998 11.4247 3.85072 10.8005 4.43462 10.4303L7 8.80125L9.56499 10.43C10.1493 10.8005 10.5 11.4247 10.5 12.094V14.6667H3.49998V14.6667Z" fill="#131B23"/>
</svg>
