<?xml version="1.0" standalone="no"?>
<!DOCTYPE svg PUBLIC "-//W3C//DTD SVG 20010904//EN"
 "http://www.w3.org/TR/2001/REC-SVG-20010904/DTD/svg10.dtd">
<svg version="1.0" xmlns="http://www.w3.org/2000/svg"
 width="256.000000pt" height="256.000000pt" viewBox="0 0 256.000000 256.000000"
 preserveAspectRatio="xMidYMid meet">
<metadata>
Created by potrace 1.14, written by Peter Selinger 2001-2017
</metadata>
<g transform="translate(0.000000,256.000000) scale(0.100000,-0.100000)"
fill="#000000" stroke="none">
<path d="M230 2553 c-57 -21 -85 -100 -54 -152 27 -45 63 -55 196 -55 65 1
119 -2 119 -5 1 -3 3 -114 4 -246 3 -215 5 -247 25 -310 49 -153 121 -228 368
-384 100 -63 182 -118 182 -122 0 -5 -70 -51 -292 -188 -89 -55 -176 -144
-217 -220 -55 -105 -64 -160 -65 -421 l-1 -235 -122 -1 c-142 -1 -175 -11
-199 -62 -23 -50 -10 -99 35 -129 l34 -23 1048 2 1047 3 26 24 c50 47 43 121
-16 164 -23 17 -44 20 -155 21 l-128 1 -1 230 c-1 286 -10 338 -72 440 -64
103 -126 154 -397 323 -27 17 -54 35 -60 40 -5 4 -18 11 -27 15 -10 3 -18 10
-18 14 0 4 53 41 118 82 285 181 322 212 388 324 57 98 66 152 68 422 l1 240
110 1 c148 0 175 7 203 47 37 55 25 113 -30 147 -32 20 -50 20 -1068 19 -569
0 -1042 -3 -1050 -6z m1608 -452 c-3 -228 -5 -249 -25 -291 -35 -74 -81 -115
-238 -214 -82 -52 -155 -100 -162 -106 -7 -5 -15 -10 -18 -10 -3 0 -30 -16
-60 -36 l-55 -37 -172 110 c-95 61 -193 123 -217 138 -61 38 -113 94 -142 151
-22 47 -24 60 -27 282 -2 128 -2 239 1 246 4 9 125 12 562 12 l556 0 -3 -245z
m-345 -1083 c228 -144 279 -186 317 -263 24 -48 25 -58 28 -296 l4 -245 -559
0 -558 1 0 245 0 245 28 56 c16 31 46 71 68 90 33 29 446 298 458 299 2 0 99
-60 214 -132z"/>
</g>
</svg>
